PathFileType	4	(X/Y/Z)	c:/Users/goper/Files/vsCode/490R/osim_files/A05/A05_Slow_02.trc
DataRate	CameraRate	NumFrames	NumMarkers	Units                	OrigDataRate	OrigDataStartFrame	OrigNumFrames
250.00	250.00	6	36	mm	250.0	2684	3578
                Frame#	Time	LPSIS			LASIS			LTH1			LTH2			LTH3			LTH4			LLFE			LMFE			LSH1			LSH2			LSH3			LSH4			LLMAL			LMMAL			LCAL			LMTP5			LTOE			LMTP1			RPSIS			RASIS			RTH1			RTH2			RTH3			RTH4			RLFE			RMFE			RSH1			RSH2			RSH3			RSH4			RLMAL			RMMAL			RCAL			RMTP1			RTOE			RMTP5		
		X1	Y1	Z1	X2	Y2	Z2	X3	Y3	Z3	X4	Y4	Z4	X5	Y5	Z5	X6	Y6	Z6	X7	Y7	Z7	X8	Y8	Z8	X9	Y9	Z9	X10	Y10	Z10	X11	Y11	Z11	X12	Y12	Z12	X13	Y13	Z13	X14	Y14	Z14	X15	Y15	Z15	X16	Y16	Z16	X17	Y17	Z17	X18	Y18	Z18	X19	Y19	Z19	X20	Y20	Z20	X21	Y21	Z21	X22	Y22	Z22	X23	Y23	Z23	X24	Y24	Z24	X25	Y25	Z25	X26	Y26	Z26	X27	Y27	Z27	X28	Y28	Z28	X29	Y29	Z29	X30	Y30	Z30	X31	Y31	Z31	X32	Y32	Z32	X33	Y33	Z33	X34	Y34	Z34	X35	Y35	Z35	X36	Y36	Z36

2684	10.73200	0.00000	0.00000	0.00000	-2488.47314	973.35864	473.09778	0.00000	0.00000	0.00000	-2447.61548	646.17987	522.24396	-2474.60132	708.44830	538.72229	-2491.48511	668.43488	537.54242	-2558.68481	503.20126	521.25482	-2566.18896	496.66885	421.37375	-2551.29712	400.78717	536.15753	-2562.68213	359.45471	540.52612	-2609.79639	408.92783	523.47412	-2613.23022	365.37909	530.64563	-2639.61035	146.80647	545.08496	-2638.77344	141.74921	456.10141	0.00000	0.00000	0.00000	-2777.04980	121.99069	578.25946	-2820.35303	152.85905	515.55292	-2784.81030	130.98604	467.91711	-2312.03467	1023.25153	274.34354	0.00000	0.00000	0.00000	0.00000	0.00000	0.00000	0.00000	0.00000	0.00000	-2453.79492	600.74207	158.44966	-2447.23926	554.99512	170.60941	-2369.10791	520.34851	145.02078	-2375.49927	498.11325	287.16397	-2271.45825	274.62976	147.12683	0.00000	0.00000	0.00000	-2327.66333	251.24004	160.92055	-2308.98901	209.65800	164.07047	-2229.75586	120.14715	176.05656	-2274.90747	136.48222	266.29456	-2168.81616	75.00401	253.21838	-2380.53052	56.43818	250.34093	-2410.03516	64.07277	195.30133	-2344.49268	46.58246	134.18637
2685	10.73600	0.00000	0.00000	0.00000	-2492.03784	972.59814	473.54056	0.00000	0.00000	0.00000	-2451.02124	645.28290	522.75549	-2477.66260	706.64716	539.32568	-2495.02173	668.03253	537.55200	-2561.96143	502.25687	521.42303	-2568.88623	495.59192	421.54990	-2554.29395	399.72638	536.26965	-2566.47144	358.51111	540.97815	-2613.06787	407.53409	523.25171	-2616.27393	364.29752	530.62000	-2640.80151	144.67349	547.29633	-2641.35132	140.66740	456.08826	0.00000	0.00000	0.00000	-2780.46753	120.59117	577.56226	-2823.80737	151.87222	514.92261	-2787.97192	130.14867	467.26572	-2315.11792	1022.63574	275.52963	0.00000	0.00000	0.00000	0.00000	0.00000	0.00000	0.00000	0.00000	0.00000	-2455.64502	600.47015	158.67320	-2448.91724	554.39008	170.90579	-2370.67993	520.26520	145.32555	-2377.84058	498.29733	287.33517	-2272.09009	274.86902	147.32545	0.00000	0.00000	0.00000	-2328.26904	251.22729	161.00835	-2306.79883	209.34943	163.41779	-2230.00317	120.48512	176.23230	-2275.26245	136.56448	266.40836	-2168.95947	75.15618	253.27148	-2380.60815	56.42946	250.35820	-2410.10132	64.00688	195.28661	-2344.97144	46.77592	134.16676
2686	10.74000	0.00000	0.00000	0.00000	-2495.62524	971.70129	474.02127	0.00000	0.00000	0.00000	-2454.47314	644.40448	523.39355	-2481.18042	705.71417	539.68640	-2498.54443	667.08331	537.90607	-2565.10400	501.13724	521.58667	-2571.64062	494.50299	421.67041	-2557.44873	398.66898	536.47736	-2568.84619	357.32248	540.92694	-2615.89990	406.76984	523.38416	-2619.34424	362.81436	530.94757	-2643.52222	143.49829	547.12891	-2643.70239	139.40688	456.04807	0.00000	0.00000	0.00000	-2783.45850	119.72961	576.64825	-2825.85913	150.25706	514.05731	-2790.39600	128.72858	466.61411	-2317.87476	1022.23077	276.50586	0.00000	0.00000	0.00000	0.00000	0.00000	0.00000	0.00000	0.00000	0.00000	-2457.57520	600.17773	158.91241	-2450.59668	553.98920	171.07269	-2372.17261	520.18298	145.55515	-2379.57812	497.73691	287.44913	-2272.92017	275.25577	147.51122	0.00000	0.00000	0.00000	-2328.90527	251.22948	161.05779	-2307.25342	209.42104	163.47546	-2230.26221	120.80087	176.38261	-2275.74658	136.72977	266.55151	-2168.46753	75.25282	253.54776	-2380.79688	56.46296	250.44221	-2410.13525	63.90820	195.25214	-2343.85522	46.13607	133.58286
2687	10.74400	0.00000	0.00000	0.00000	-2499.28076	970.87225	474.50089	0.00000	0.00000	0.00000	-2458.28027	643.47369	524.97589	-2485.30811	705.65887	539.94281	-2502.11353	666.12170	538.29181	-2568.19092	500.05817	521.78650	-2574.23096	493.30685	421.82788	-2560.22485	397.51416	536.64966	-2571.89233	356.16837	541.15869	-2618.69360	405.52463	523.31879	-2622.26050	361.94693	530.65015	-2646.16797	142.18594	547.10004	-2646.04370	138.17076	456.01981	0.00000	0.00000	0.00000	-2785.78052	118.09833	576.49207	-2828.44092	148.78387	513.27570	-2792.24194	126.94128	466.08221	-2321.33911	1021.29565	277.88019	0.00000	0.00000	0.00000	0.00000	0.00000	0.00000	0.00000	0.00000	0.00000	-2459.54443	599.86261	159.12143	-2452.59131	554.02448	171.01022	-2374.17139	520.28729	145.55203	-2381.72217	497.49524	287.66977	-2273.67798	275.54111	147.71825	-2259.52734	231.25165	157.18742	-2329.67358	251.28763	161.09535	-2307.86011	209.52312	163.51256	-2230.56494	121.13996	176.54230	-2275.54053	136.24478	266.59616	-2168.60645	75.45331	253.65662	-2380.89062	56.43316	250.46727	-2410.24023	63.81405	195.23590	-2345.08276	46.75570	134.19925
2688	10.74800	0.00000	0.00000	0.00000	-2502.97998	970.11688	475.12674	0.00000	0.00000	0.00000	-2461.06836	642.32410	525.22021	-2488.26025	703.76898	540.47119	-2505.52246	665.07233	538.62646	-2571.16748	498.82510	521.97351	-2576.54663	491.96045	421.94202	-2563.22461	396.40109	536.85260	-2574.64136	354.95700	541.31482	-2621.57007	404.27649	523.29480	-2625.03369	360.67197	530.69269	-2649.93335	141.59021	548.73383	-2648.11035	136.72610	455.97653	0.00000	0.00000	0.00000	-2788.86230	116.82586	575.53998	-2830.83105	147.16634	512.50775	-2794.44092	125.40492	465.50269	-2324.61353	1020.62292	279.11459	0.00000	0.00000	0.00000	0.00000	0.00000	0.00000	-2415.53784	555.67078	144.69234	-2461.62280	599.60809	159.38696	-2454.56812	553.70667	171.15869	-2377.50391	519.65289	146.96912	-2384.30200	497.71902	288.02664	0.00000	0.00000	0.00000	-2259.99854	231.63202	157.43797	-2330.35181	251.35002	161.09756	-2308.45166	209.66299	163.56953	-2230.86768	121.54728	176.66093	-2276.64868	136.97974	266.74646	-2169.40796	75.68381	253.56091	-2380.95679	56.40923	250.47247	-2410.28296	63.72009	195.21515	-2344.58618	46.50171	134.19531
2689	10.75200	0.00000	0.00000	0.00000	-2506.66284	969.22778	475.72018	0.00000	0.00000	0.00000	-2464.79883	641.55743	525.93768	-2492.29102	703.56445	540.77228	-2508.76611	663.53577	539.22614	-2573.98706	497.55814	522.07172	-2579.17822	490.75623	422.05408	-2565.93213	395.15652	537.03290	-2577.42163	353.72516	541.57202	-2624.29443	402.91623	523.29022	-2627.71899	359.33212	530.69049	-2652.13770	139.99876	548.59338	-2650.14209	135.38921	455.99069	0.00000	0.00000	0.00000	-2791.19556	114.82176	575.19525	-2833.06567	145.48528	511.70584	-2797.02832	124.16923	464.78687	-2327.31934	1020.31342	280.19666	0.00000	0.00000	0.00000	0.00000	0.00000	0.00000	-2417.57007	555.55060	144.91556	-2463.68628	599.36591	159.62958	-2456.65137	553.49451	171.32422	-2382.32788	519.88153	147.62050	-2386.07642	497.23596	288.11090	-2275.10181	276.06558	148.20265	0.00000	0.00000	0.00000	-2330.98389	251.35568	161.16205	-2308.94019	209.83528	163.61073	-2231.03394	121.93912	176.79904	-2277.00122	137.05693	266.83780	-2168.82983	75.78591	253.73557	-2380.89917	56.31232	250.48485	-2410.32520	63.60968	195.18944	-2344.59106	46.49007	134.22282
